# xmcd
#
# Track frame offsets: 
#        175
#        12700
#        24742
#        37665
#        50945
#        65085
#        78725
#        89260
#        102287
#        115682
#        128655
#        140967
#        152970
#        165117
#        176377
#        189437
#
# Disc length: 2713 seconds
#
# Revision: 2
# Processed by: cddbd v1.5.2PL0 Copyright (c) Steve Scherf et al.
# Submitted via: ExactAudioCopy v0.99pb5
#
DISCID=d70a9710
DTITLE=the andrews sisters - My Greatest Songs
DYEAR=1900
DGENRE=
TTITLE0=Boogie Woogie Bugle Boy
TTITLE1=I Can Dream, Can't I
TTITLE2=Beat Me Daddy, Eight To The Bar
TTITLE3=Rumors Are Flying
TTITLE4=Bei Mir Bist Du Sch n
TTITLE5=Near You
TTITLE6=Bounce Me Brother With A Solid Four
TTITLE7=Beer Barrel Polka (Roll Out The Barrel)
TTITLE8=Don't Sit Under The Apple Tree (With Anyone Else But Me)
TTITLE9=Gimme Some Skin, My Friend
TTITLE10=Ac-cent-tchu-ate The Positive (with Bing Crosby)
TTITLE11=Rhumboogie
TTITLE12=Money Is The Root Of All Evil
TTITLE13=Straighten Up And Fly Right
TTITLE14=Shoo, Shoo Baby
TTITLE15=Rum And Coca Cola
EXTD=
EXTT0=
EXTT1=
EXTT2=
EXTT3=
EXTT4=
EXTT5=
EXTT6=
EXTT7=
EXTT8=
EXTT9=
EXTT10=
EXTT11=
EXTT12=
EXTT13=
EXTT14=
EXTT15=
PLAYORDER=
